HIERARCHY
ROOT Hips
{
	OFFSET 0.00000 0.00000 0.00000
	CHANNELS 6 Xposition Yposition Zposition Zrotation Yrotation Xrotation 
	JOINT LHipJoint
	{
		OFFSET 0 0 0
		CHANNELS 3 Zrotation Yrotation Xrotation
		JOINT LeftUpLeg
		{
			OFFSET 1.39187 -1.60231 0.69152
			CHANNELS 3 Zrotation Yrotation Xrotation
			JOINT LeftLeg
			{
				OFFSET 2.43314 -6.68499 0.00000
				CHANNELS 3 Zrotation Yrotation Xrotation
				JOINT LeftFoot
				{
					OFFSET 2.32059 -6.37578 0.00000
					CHANNELS 3 Zrotation Yrotation Xrotation
					JOINT LeftToeBase
					{
						OFFSET 0.23021 -0.63250 1.71305
						CHANNELS 3 Zrotation Yrotation Xrotation
						End Site
						{
							OFFSET 0.00000 -0.00000 0.91647
						}
					}
				}
			}
		}
	}
	JOINT RHipJoint
	{
		OFFSET 0 0 0
		CHANNELS 3 Zrotation Yrotation Xrotation
		JOINT RightUpLeg
		{
			OFFSET -1.19407 -1.60231 0.69152
			CHANNELS 3 Zrotation Yrotation Xrotation
			JOINT RightLeg
			{
				OFFSET -2.44411 -6.71513 0.00000
				CHANNELS 3 Zrotation Yrotation Xrotation
				JOINT RightFoot
				{
					OFFSET -2.31924 -6.37207 0.00000
					CHANNELS 3 Zrotation Yrotation Xrotation
					JOINT RightToeBase
					{
						OFFSET -0.19473 -0.53502 1.87724
						CHANNELS 3 Zrotation Yrotation Xrotation
						End Site
						{
							OFFSET -0.00000 -0.00000 0.98293
						}
					}
				}
			}
		}
	}
	JOINT LowerBack
	{
		OFFSET 0 0 0
		CHANNELS 3 Zrotation Yrotation Xrotation
		JOINT Spine
		{
			OFFSET -0.01120 1.87307 0.09613
			CHANNELS 3 Zrotation Yrotation Xrotation
			JOINT Spine1
			{
				OFFSET 0.01099 1.87818 0.04834
				CHANNELS 3 Zrotation Yrotation Xrotation
				JOINT Neck
				{
					OFFSET 0 0 0
					CHANNELS 3 Zrotation Yrotation Xrotation
					JOINT Neck1
					{
						OFFSET 0.01702 1.40324 -0.12579
						CHANNELS 3 Zrotation Yrotation Xrotation
						JOINT Head
						{
							OFFSET -0.04239 1.38587 -0.01614
							CHANNELS 3 Zrotation Yrotation Xrotation
							End Site
							{
								OFFSET -0.02510 1.47031 -0.00154
							}
						}
					}
				}
				JOINT LeftShoulder
				{
					OFFSET 0 0 0
					CHANNELS 3 Zrotation Yrotation Xrotation
					JOINT LeftArm
					{
						OFFSET 2.95699 0.62343 0.11653
						CHANNELS 3 Zrotation Yrotation Xrotation
						JOINT LeftForeArm
						{
							OFFSET 4.68382 -0.00000 -0.00000
							CHANNELS 3 Zrotation Yrotation Xrotation
							JOINT LeftHand
							{
								OFFSET 2.98124 -0.00000 -0.00000
								CHANNELS 3 Zrotation Yrotation Xrotation
								JOINT LeftFingerBase
								{
									OFFSET 0 0 0
									CHANNELS 3 Zrotation Yrotation Xrotation
									JOINT LeftHandIndex1
									{
										OFFSET 0.70759 -0.00000 0.00000
										CHANNELS 3 Zrotation Yrotation Xrotation
										End Site
										{
											OFFSET 0.57048 -0.00000 0.00000
										}
									}
								}
								JOINT LThumb
								{
									OFFSET 0 0 0
									CHANNELS 3 Zrotation Yrotation Xrotation
									End Site
									{
										OFFSET 0.57919 -0.00000 0.57919
									}
								}
							}
						}
					}
				}
				JOINT RightShoulder
				{
					OFFSET 0 0 0
					CHANNELS 3 Zrotation Yrotation Xrotation
					JOINT RightArm
					{
						OFFSET -2.99027 0.88714 -0.02793
						CHANNELS 3 Zrotation Yrotation Xrotation
						JOINT RightForeArm
						{
							OFFSET -4.75876 -0.00000 -0.00000
							CHANNELS 3 Zrotation Yrotation Xrotation
							JOINT RightHand
							{
								OFFSET -2.93293 -0.00000 -0.00000
								CHANNELS 3 Zrotation Yrotation Xrotation
								JOINT RightFingerBase
								{
									OFFSET 0 0 0
									CHANNELS 3 Zrotation Yrotation Xrotation
									JOINT RightHandIndex1
									{
										OFFSET -0.83175 -0.00000 0.00000
										CHANNELS 3 Zrotation Yrotation Xrotation
										End Site
										{
											OFFSET -0.67058 -0.00000 0.00000
										}
									}
								}
								JOINT RThumb
								{
									OFFSET 0 0 0
									CHANNELS 3 Zrotation Yrotation Xrotation
									End Site
									{
										OFFSET -0.68082 -0.00000 0.68082
									}
								}
							}
						}
					}
				}
			}
		}
	}
}
MOTION
Frames: 8
Frame Time: .0083333
-22.5628 16.1985 -5.7595 0 0 0 0 0 0 -21 0 0 0 0 0 0 0 0 0 0 0 0 0 0 21 0 0 0 0 0 0 0 0 0 0 0 0 0 0 0 0 0 0 0 0 0 0 -16 0 0 21 0 0 11 0 0 0 -8 0 0 0 0 0 0 0 0 0 0 0 0 0 0 0 0 0 0 0 0 8 0 0 0 0 0 0 0 0 0 0 0 0 0 0 0 0 0
-22.5628 16.1985 -5.7595 -165.3020 -87.8325 -178.7650 0.0000 0.0000 0.0000 -6.4858 -29.8459 -17.8983 1.6771 8.1584 23.1963 -0.5955 17.3639 -18.0842 0.0698 -1.7041 -4.6886 0.0000 0.0000 0.0000 20.0213 11.0604 -18.4723 -1.5962 -7.9687 22.6190 1.4479 -21.2744 -13.3933 -0.4473 4.2911 -11.8972 -2.1179 0.0562 -12.4756 -0.1587 0.1326 -4.6193 1.0442 -0.0055 2.1466 -11.9535 -4.9670 2.7453 13.3488 -7.3710 3.2667 5.9118 -3.7875 1.4462 0.0000 -0.0000 0.0000 -92.3265 -5.3358 -16.9816 4.9519 -8.5033 -0.3684 -0.0000 -0.0000 79.1062 -4.1551 17.6999 -1.2653 -7.1250 0.0000 -0.0000 -29.5948 45.3848 -0.3088 0.0000 -0.0000 0.0000 96.0022 1.2832 12.7852 -8.5138 14.3823 -1.0762 0.0000 0.0000 26.8396 -15.7648 10.6051 -2.9742 7.1250 -0.0000 -0.0000 7.9777 -19.0276 4.9893
-22.5797 16.1999 -5.7607 -174.0310 -87.5290 -169.9180 0.0000 0.0000 0.0000 -6.7701 -30.8537 -17.3690 1.6297 8.0479 22.8597 -0.7772 18.6632 -18.2836 0.0649 -1.6434 -4.5210 0.0000 0.0000 0.0000 19.5799 11.2284 -18.6405 -1.6284 -8.0449 22.8507 1.4167 -21.1263 -13.5904 -0.4472 4.2906 -11.8957 -2.4868 0.0896 -12.8519 -0.2218 0.2319 -4.5610 1.2017 0.0414 2.4051 -11.6394 -4.9342 2.2346 12.8869 -7.2942 3.7888 5.6973 -3.7276 1.6451 -0.0000 -0.0000 0.0000 -92.3896 -5.4786 -17.0433 4.9083 -8.4296 -0.3619 -0.0000 -0.0000 79.3105 -4.2924 17.9103 -1.3223 -7.1250 0.0000 -0.0000 -29.8130 45.5517 -0.4463 -0.0000 -0.0000 0.0000 95.9909 1.3667 12.8264 -8.5059 14.3695 -1.0742 0.0000 0.0000 26.9186 -15.9093 10.5509 -2.9877 7.1250 -0.0000 -0.0000 7.8764 -19.0743 4.9165
-22.5753 16.2018 -5.7658 -177.6920 -87.6014 -166.2860 0.0000 0.0000 0.0000 -6.9113 -30.7797 -17.4283 1.6323 8.0540 22.8783 -0.7447 18.4529 -18.2825 0.0605 -1.5870 -4.3657 0.0000 0.0000 0.0000 19.4376 11.2329 -18.5657 -1.6048 -7.9891 22.6810 1.4320 -21.1996 -13.4979 -0.4276 4.1965 -11.6301 -2.7151 0.0154 -12.7013 -0.2219 0.1585 -4.5605 1.3192 0.0077 2.3252 -11.1589 -4.8224 1.7378 12.3510 -7.1138 4.3737 5.4375 -3.6168 1.8398 0.0000 -0.0000 0.0000 -92.4470 -5.5215 -17.0939 4.9131 -8.4377 -0.3626 -0.0000 -0.0000 79.5049 -4.6754 18.2925 -1.4704 -7.1250 0.0000 -0.0000 -30.3260 45.8364 -0.6902 0.0000 -0.0000 0.0000 95.9600 1.2381 13.0941 -8.6097 14.5362 -1.1001 0.0000 0.0000 26.7597 -15.9328 10.4580 -2.9663 7.1250 -0.0000 -0.0000 7.8609 -19.1682 4.8900
-22.5830 16.2032 -5.7610 -165.8560 -87.5399 -178.0650 0.0000 0.0000 0.0000 -6.3657 -30.6485 -17.4421 1.6310 8.0510 22.8691 -0.7222 18.3819 -18.4464 0.0526 -1.4797 -4.0698 0.0000 0.0000 0.0000 20.0117 11.1069 -18.5351 -1.5822 -7.9355 22.5185 1.4003 -21.0018 -13.4669 -0.4310 4.2132 -11.6772 -2.0998 0.0775 -12.8183 -0.0905 0.1655 -4.5448 1.1105 0.0078 2.4087 -11.4080 -4.7977 1.7963 12.5732 -7.1085 4.4557 5.5490 -3.6181 1.8696 -0.0000 -0.0000 0.0000 -92.4967 -5.4947 -17.1905 4.9501 -8.5003 -0.3681 -0.0000 -0.0000 79.5838 -4.7738 18.4030 -1.5102 -7.1250 0.0000 -0.0000 -30.4646 45.9199 -0.7631 -0.0000 -0.0000 0.0000 95.9590 1.2126 13.2854 -8.6574 14.6128 -1.1121 0.0000 0.0000 26.7082 -15.8333 10.4009 -2.9310 7.1250 -0.0000 -0.0000 7.9320 -19.2329 4.9236
-22.5735 16.2065 -5.7656 -167.6880 -87.7279 -176.2650 0.0000 0.0000 0.0000 -6.5311 -29.7745 -17.7967 1.6333 8.0564 22.8857 -0.5809 17.3081 -18.1758 0.0720 -1.7307 -4.7619 0.0000 0.0000 0.0000 19.9102 11.5013 -18.2638 -1.5552 -7.8706 22.3216 1.4944 -21.5700 -13.4920 -0.3908 4.0140 -11.1161 -2.2515 -0.0451 -12.5836 -0.0776 0.0171 -4.5580 1.1876 -0.0628 2.2722 -10.8122 -4.6899 1.1515 11.8928 -6.9254 5.1994 5.2220 -3.5019 2.1285 0.0000 -0.0000 0.0000 -92.5362 -5.5256 -17.3184 4.9774 -8.5463 -0.3721 -0.0000 -0.0000 79.7169 -4.5386 18.1596 -1.4172 -7.1250 0.0000 -0.0000 -30.1441 45.7382 -0.6049 0.0000 -0.0000 0.0000 96.0123 1.4562 13.1991 -8.5559 14.4499 -1.0866 0.0000 0.0000 26.8921 -15.9028 10.4512 -2.9585 7.1250 -0.0000 -0.0000 7.8822 -19.1770 4.9020
-22.5923 16.2127 -5.7626 -162.7800 -87.4048 -181.1710 0.0000 0.0000 0.0000 -6.3742 -29.9296 -17.4966 1.6458 8.0856 22.9744 -0.6515 17.8906 -18.3910 0.0640 -1.6322 -4.4903 0.0000 0.0000 0.0000 20.1394 11.8498 -17.9131 -1.5208 -7.7870 22.0690 1.5193 -21.6900 -13.3500 -0.4064 4.0928 -11.3378 -1.9085 0.0697 -12.8447 -0.0216 0.1348 -4.4651 1.0700 -0.0079 2.5083 -11.1195 -4.7811 1.1915 12.0679 -7.0706 5.2856 5.3218 -3.5784 2.1808 -0.0000 0.0000 0.0000 -92.5994 -5.5433 -17.3839 5.0124 -8.6054 -0.3774 -0.0000 -0.0000 79.9132 -4.3206 17.9219 -1.3318 -7.1250 0.0000 -0.0000 -29.8425 45.5583 -0.4522 -0.0000 0.0000 0.0000 96.1205 1.8285 12.7156 -8.3781 14.1640 -1.0427 0.0000 0.0000 27.4081 -16.1026 10.5236 -3.0182 7.1250 -0.0000 -0.0000 7.7401 -19.0902 4.8271
-22.5998 16.2149 -5.7582 -163.0120 -87.2647 -180.8910 0.0000 0.0000 0.0000 -6.3157 -30.3587 -17.3855 1.6543 8.1055 23.0349 -0.7346 18.4645 -18.4523 0.0653 -1.6485 -4.5353 0.0000 0.0000 0.0000 20.1178 11.8529 -17.8601 -1.4942 -7.7217 21.8719 1.5028 -21.5563 -13.1522 -0.4241 4.1797 -11.5828 -1.8511 0.1071 -12.9689 0.0095 0.1794 -4.4307 1.0770 0.0131 2.6103 -11.1977 -4.7472 1.0432 12.1418 -7.0430 5.5830 5.3528 -3.5603 2.2942 -0.0000 0.0000 0.0000 -92.7286 -5.5504 -17.4246 5.0196 -8.6175 -0.3784 -0.0000 -0.0000 80.0247 -4.2548 18.0755 -1.3223 -7.1250 0.0000 -0.0000 -29.8621 45.7006 -0.5677 -0.0000 0.0000 0.0000 96.1458 2.0392 12.3288 -8.2652 13.9818 -1.0152 0.0000 0.0000 27.8476 -16.3364 10.6729 -3.1072 7.1250 -0.0000 -0.0000 7.5737 -18.9217 4.7500
